<svg width="200" height="200" viewBox="0 0 200 200" xmlns="http://www.w3.org/2000/svg">

  <circle cx="100" cy="100" r="70" fill="none" stroke="white" stroke-width="1"/>

  <!-- Main Network -->
  <line x1="100" y1="50" x2="150" y2="80" stroke="white" stroke-width="2.5"/>
  <line x1="150" y1="80" x2="130" y2="140" stroke="white" stroke-width="2.5"/>
  <line x1="130" y1="140" x2="60" y2="130" stroke="white" stroke-width="2.5"/>
  <line x1="60" y1="130" x2="80" y2="60" stroke="white" stroke-width="2.5"/>
  <line x1="80" y1="60" x2="100" y2="50" stroke="white" stroke-width="2.5"/>

  <!-- Secon Branch -->
  <line x1="150" y1="80" x2="170" y2="70" stroke="white" stroke-width="2"/>
  <line x1="150" y1="80" x2="170" y2="100" stroke="white" stroke-width="2"/>

  <line x1="130" y1="140" x2="145" y2="160" stroke="white" stroke-width="2"/>
  <line x1="130" y1="140" x2="115" y2="160" stroke="white" stroke-width="2"/>

  <line x1="60" y1="130" x2="45" y2="140" stroke="white" stroke-width="2"/>
  <line x1="60" y1="130" x2="55" y2="110" stroke="white" stroke-width="2"/>

  <line x1="80" y1="60" x2="65" y2="45" stroke="white" stroke-width="2"/>
  <line x1="80" y1="60" x2="95" y2="40" stroke="white" stroke-width="2"/>

  <!-- Third Branch -->
  <line x1="170" y1="70" x2="180" y2="65" stroke="white" stroke-width="1"/>
  <line x1="170" y1="70" x2="175" y2="80" stroke="white" stroke-width="1"/>

  <line x1="170" y1="100" x2="175" y2="95" stroke="white" stroke-width="1"/>
  <line x1="170" y1="100" x2="180" y2="110" stroke="white" stroke-width="1"/>

  <line x1="145" y1="160" x2="150" y2="170" stroke="white" stroke-width="1"/>
  <line x1="115" y1="160" x2="110" y2="170" stroke="white" stroke-width="1"/>

  <line x1="45" y1="140" x2="35" y2="145" stroke="white" stroke-width="1"/>
  <line x1="55" y1="110" x2="50" y2="100" stroke="white" stroke-width="1"/>

  <line x1="65" y1="45" x2="55" y2="35" stroke="white" stroke-width="1"/>
  <line x1="95" y1="40" x2="105" y2="30" stroke="white" stroke-width="1"/>

  <!-- Main Nodes -->
  <circle cx="100" cy="50" r="6" fill="white"/>
  <circle cx="150" cy="80" r="5.5" fill="white"/>
  <circle cx="130" cy="140" r="5" fill="white"/>
  <circle cx="60" cy="130" r="5.5" fill="white"/>
  <circle cx="80" cy="60" r="5" fill="white"/>

  <!-- Middle Nodes -->
  <circle cx="170" cy="70" r="4" fill="white"/>
  <circle cx="170" cy="100" r="4" fill="white"/>
  <circle cx="145" cy="160" r="4" fill="white"/>
  <circle cx="115" cy="160" r="4" fill="white"/>
  <circle cx="45" cy="140" r="4" fill="white"/>
  <circle cx="55" cy="110" r="4" fill="white"/>
  <circle cx="65" cy="45" r="4" fill="white"/>
  <circle cx="95" cy="40" r="4" fill="white"/>

  <!-- Small Nodes -->
  <circle cx="180" cy="65" r="3" fill="white"/>
  <circle cx="175" cy="80" r="3" fill="white"/>
  <circle cx="175" cy="95" r="3" fill="white"/>
  <circle cx="180" cy="110" r="3" fill="white"/>
  <circle cx="150" cy="170" r="3" fill="white"/>
  <circle cx="110" cy="170" r="3" fill="white"/>
  <circle cx="35" cy="145" r="3" fill="white"/>
  <circle cx="50" cy="100" r="3" fill="white"/>
  <circle cx="55" cy="35" r="3" fill="white"/>
  <circle cx="105" cy="30" r="3" fill="white"/>
</svg>
